<svg data-v-423bf9ae="" xmlns="http://www.w3.org/2000/svg" viewBox="0 0 446 183" class="iconLeft"><!----><!----><!----><g data-v-423bf9ae="" id="925a8360-fdf8-46d4-82d2-531b45f09d1d" fill="#C7CACD" transform="matrix(6.695727825164795,0,0,6.695727825164795,198.10057067871094,35.52647399902344)"><path d="M3.64 12.63L0.59 12.63L0.59 12.33L0.59 12.33Q1.34 12.33 1.47 12.05L1.47 12.05L1.47 5.01L1.47 5.01Q1.34 4.73 0.59 4.73L0.59 4.73L0.59 4.44L3.75 4.44L3.75 4.44Q5.47 4.44 6.38 5.10L6.38 5.10L6.38 5.10Q7.28 5.75 7.28 6.57L7.28 6.57L7.28 6.57Q7.28 7.62 6.44 8.26L6.44 8.26L6.44 8.26Q5.60 8.90 3.92 8.90L3.92 8.90L2.76 8.90L2.76 12.05L2.76 12.05Q2.88 12.33 3.64 12.33L3.64 12.33L3.64 12.63ZM3.75 4.91L2.76 4.91L2.76 8.43L3.92 8.43L3.92 8.43Q5.00 8.43 5.44 8.00L5.44 8.00L5.44 8.00Q5.88 7.57 5.88 6.58L5.88 6.58L5.88 6.58Q5.88 4.91 3.75 4.91L3.75 4.91ZM14.04 6.47L14.04 11.77L14.04 11.77Q14.04 11.77 14.92 11.84L14.92 11.84L14.92 12.17L14.92 12.17Q14.66 12.17 13.88 12.47L13.88 12.47L13.88 12.47Q13.10 12.77 12.78 12.77L12.78 12.77L12.78 12.12L12.78 12.12Q12.03 12.77 11.12 12.77L11.12 12.77L11.12 12.77Q9.81 12.77 9.23 12.29L9.23 12.29L9.23 12.29Q8.65 11.80 8.65 10.78L8.65 10.78L8.65 7.04L8.65 7.04Q8.53 6.76 7.77 6.76L7.77 6.76L7.77 6.47L9.91 6.47L9.91 10.88L9.91 10.88Q9.91 12.29 11.20 12.29L11.20 12.29L11.20 12.29Q12.08 12.29 12.78 11.68L12.78 11.68L12.78 7.04L12.78 7.04Q12.66 6.76 11.90 6.76L11.90 6.76L11.90 6.47L14.04 6.47ZM18.55 12.63L15.53 12.63L15.53 12.33L15.53 12.33Q16.28 12.33 16.41 12.05L16.41 12.05L16.41 4.80L16.41 4.80Q15.54 4.73 15.53 4.73L15.53 4.73L15.53 4.41L15.53 4.41Q15.79 4.41 16.57 4.11L16.57 4.11L16.57 4.11Q17.35 3.81 17.67 3.81L17.67 3.81L17.67 12.05L17.67 12.05Q17.79 12.33 18.55 12.33L18.55 12.33L18.55 12.63ZM24.26 11.33L24.26 12.63L19.08 12.63L22.79 6.89L20.10 6.89L20.10 6.89Q19.82 7.01 19.82 7.77L19.82 7.77L19.53 7.77L19.53 6.47L24.37 6.47L20.66 12.21L23.69 12.21L23.69 12.21Q23.97 12.08 23.97 11.33L23.97 11.33L24.26 11.33ZM26.36 7.50L26.36 7.50L26.36 7.50Q26.56 7.50 26.71 7.64L26.71 7.64L26.71 7.64Q26.85 7.78 26.85 8.08L26.85 8.08L26.85 8.08Q26.85 8.32 26.66 8.44L26.66 8.44L26.66 8.44Q26.47 8.57 26.22 8.57L26.22 8.57L26.22 8.57Q25.96 8.57 25.79 8.38L25.79 8.38L25.79 8.38Q25.62 8.19 25.62 7.87L25.62 7.87L25.62 7.87Q25.62 7.14 26.22 6.73L26.22 6.73L26.22 6.73Q26.82 6.33 27.93 6.33L27.93 6.33L27.93 6.33Q29.23 6.33 29.84 6.97L29.84 6.97L29.84 6.97Q30.45 7.62 30.45 8.68L30.45 8.68L30.45 11.45L30.45 11.45Q30.45 11.90 30.60 12.11L30.60 12.11L30.60 12.11Q30.74 12.32 30.95 12.32L30.95 12.32L30.95 12.32Q31.14 12.32 31.28 12.22L31.28 12.22L31.28 12.22Q31.43 12.12 31.43 11.98L31.43 11.98L31.68 11.98L31.68 11.98Q31.68 12.38 31.39 12.56L31.39 12.56L31.39 12.56Q31.11 12.74 30.39 12.74L30.39 12.74L30.39 12.74Q29.69 12.74 29.40 12.17L29.40 12.17L29.40 12.17Q28.57 12.77 27.34 12.77L27.34 12.77L27.34 12.77Q25.24 12.77 25.24 11.06L25.24 11.06L25.24 11.06Q25.24 10.70 25.50 10.40L25.50 10.40L25.50 10.40Q25.76 10.11 26.25 9.91L26.25 9.91L26.25 9.91Q26.74 9.72 27.17 9.60L27.17 9.60L27.17 9.60Q27.61 9.48 28.26 9.33L28.26 9.33L28.26 9.33Q28.91 9.18 29.19 9.10L29.19 9.10L29.19 9.10Q29.19 7.92 28.88 7.38L28.88 7.38L28.88 7.38Q28.57 6.83 27.79 6.83L27.79 6.83L27.79 6.83Q26.53 6.83 26.36 7.50ZM29.27 11.82L29.27 11.82L29.27 11.82Q29.19 11.51 29.19 11.06L29.19 11.06L29.19 9.41L29.19 9.41Q29.04 9.46 28.66 9.56L28.66 9.56L28.66 9.56Q28.29 9.66 28.06 9.73L28.06 9.73L28.06 9.73Q27.83 9.80 27.51 9.94L27.51 9.94L27.51 9.94Q27.19 10.08 27.01 10.22L27.01 10.22L27.01 10.22Q26.82 10.36 26.68 10.59L26.68 10.59L26.68 10.59Q26.54 10.82 26.54 11.09L26.54 11.09L26.54 11.09Q26.54 11.76 26.80 12.03L26.80 12.03L26.80 12.03Q27.06 12.29 27.58 12.29L27.58 12.29L27.58 12.29Q28.50 12.29 29.27 11.82ZM35.01 12.63L31.99 12.63L31.99 12.33L31.99 12.33Q32.75 12.33 32.87 12.05L32.87 12.05L32.87 7.32L32.87 7.32Q32.00 7.25 31.99 7.25L31.99 7.25L31.99 6.93L31.99 6.93Q32.26 6.93 33.03 6.63L33.03 6.63L33.03 6.63Q33.81 6.33 34.13 6.33L34.13 6.33L34.13 6.94L34.13 6.94Q34.83 6.33 35.52 6.33L35.52 6.33L35.52 6.33Q36.15 6.33 36.58 6.57L36.58 6.57L36.58 6.57Q37.00 6.80 37.00 7.10L37.00 7.10L37.00 7.10Q37.00 7.60 36.44 7.60L36.44 7.60L36.44 7.60Q36.15 7.60 35.91 7.20L35.91 7.20L35.91 7.20Q35.67 6.80 35.36 6.80L35.36 6.80L35.36 6.80Q34.82 6.80 34.13 7.41L34.13 7.41L34.13 12.05L34.13 12.05Q34.26 12.33 35.01 12.33L35.01 12.33L35.01 12.63Z"></path></g><!----><g data-v-423bf9ae="" id="ae7a67bd-720e-4193-a878-72e33836ee81" transform="matrix(1.422265648841858,0,0,1.422265648841858,0.9749984741210938,0.9722205996513367)" stroke="none" fill="#515DCF"><path d="M118.503 9.497a42.822 42.822 0 0 0-10.438-7.9c-5.044-2.53-7.577-1.586-8.816-.348a4.025 4.025 0 0 0-.695.969L76.984 35.85a30.746 30.746 0 0 1 3.523 1.917l18.541-28.91c1.594 3.755 4.834 8.03 8.45 11.646a42.822 42.822 0 0 0 10.437 7.9c.42.21.816.389 1.202.553L90.24 47.49a30.679 30.679 0 0 1 1.92 3.521l33.668-21.593a4.134 4.134 0 0 0 .923-.666c3.78-3.781-1.626-12.631-8.248-19.254zm-8.178 8.178c-6.62-6.622-8.725-12.144-8.32-13.43l.107-.165.01-.02a.985.985 0 0 1 .491-.104c1.79 0 6.966 2.273 13.062 8.37 6.854 6.854 8.87 12.533 8.269 13.55-.008.006-.016.008-.024.013l-.143.091c-1.259.432-6.8-1.654-13.452-8.305zM47.493 90.233l-18.541 28.91c-1.594-3.756-4.834-8.03-8.45-11.646a42.822 42.822 0 0 0-10.437-7.9c-.42-.21-.816-.389-1.202-.553L37.76 80.51a30.679 30.679 0 0 1-1.92-3.52L2.33 98.482a4.053 4.053 0 0 0-1.08.767c-3.78 3.781 1.626 12.63 8.248 19.254a42.822 42.822 0 0 0 10.438 7.9 12.586 12.586 0 0 0 5.5 1.596 4.485 4.485 0 0 0 3.316-1.248 4.025 4.025 0 0 0 .695-.969l21.57-33.632a30.746 30.746 0 0 1-3.523-1.917zm-35.168 25.442c-6.853-6.855-8.87-12.534-8.269-13.552l.024-.012.147-.094c1.265-.43 6.805 1.665 13.448 8.308 6.62 6.622 8.725 12.143 8.32 13.43l-.107.165-.01.02c-1.037.593-6.71-1.423-13.553-8.265zM39.209 60.194a2.002 2.002 0 0 0 2.405-1.489c.139-.592.305-1.188.492-1.772a2 2 0 0 0-3.808-1.223c-.22.684-.414 1.385-.578 2.079a2 2 0 0 0 1.489 2.405zM38.105 71.662a2 2 0 0 0 3.837-1.13c-.174-.59-.325-1.191-.449-1.784a2 2 0 0 0-3.916.818c.146.699.324 1.404.528 2.096zM56.636 42.104a2.019 2.019 0 0 0 .588-.088c.58-.18 1.179-.337 1.78-.471a2 2 0 1 0-.868-3.904 27.27 27.27 0 0 0-2.087.55 2 2 0 0 0 .587 3.913zM69.044 41.557c.6.134 1.2.294 1.778.473a2 2 0 0 0 1.182-3.822c-.68-.21-1.381-.397-2.085-.554a2 2 0 1 0-.875 3.903zM44.905 83.089q.215.215.433.424a2 2 0 0 0 2.765-2.891 22.725 22.725 0 0 1-.366-.357q-.474-.475-.914-.968a2 2 0 0 0-2.984 2.664q.515.576 1.066 1.128zM45.74 48.923a1.993 1.993 0 0 0 1.46-.633c.176-.187.355-.372.538-.555q.38-.38.772-.738a2 2 0 0 0-2.691-2.959q-.464.422-.913.872-.318.32-.624.646a2 2 0 0 0 1.459 3.367zM90.059 56.915a2 2 0 1 0-3.86 1.047c.159.589.297 1.191.408 1.793a2 2 0 0 0 3.933-.735 27.12 27.12 0 0 0-.481-2.105zM80.444 80.081l-.18.182q-.565.565-1.16 1.084a2 2 0 1 0 2.632 3.011c.463-.404.915-.826 1.35-1.26l.218-.22a2 2 0 1 0-2.86-2.797zM58.456 86.326a23.14 23.14 0 0 1-1.766-.512 2 2 0 1 0-1.268 3.793c.681.228 1.38.431 2.076.602a2 2 0 1 0 .958-3.883zM88.7 68.356a2.003 2.003 0 0 0-2.437 1.436 22.93 22.93 0 0 1-.532 1.76 2 2 0 1 0 3.78 1.31 27.16 27.16 0 0 0 .624-2.068 2 2 0 0 0-1.435-2.438zM83.092 44.908q-.427-.428-.87-.832a2 2 0 0 0-2.698 2.953q.376.343.74.707c.43.43.85.886 1.25 1.354a2 2 0 1 0 3.042-2.598 27.49 27.49 0 0 0-1.464-1.584zM70.286 86.129c-.584.165-1.186.31-1.79.43a2 2 0 0 0 .388 3.961 2.075 2.075 0 0 0 .392-.038c.706-.14 1.412-.31 2.098-.504a2 2 0 0 0-1.088-3.85zM77.435 50.565a19 19 0 1 0 0 26.87 18.875 18.875 0 0 0 0-26.87zm-2.828 24.041A15 15 0 1 1 79 64a14.904 14.904 0 0 1-4.393 10.606z"></path><path d="M70.505 58.66h-2.057l-.807-2.096A4 4 0 0 0 63.908 54l-.1.001a4 4 0 0 0-3.7 2.752l-.627 1.908H57.5a4 4 0 0 0-2.298 7.274l1.622 1.139-.547 1.7a4 4 0 0 0 6.065 4.528l1.68-1.15 1.746 1.17a4 4 0 0 0 6.03-4.561l-.562-1.725 1.501-1.058a4 4 0 0 0-2.232-7.317zm-3.987 6.808L67.995 70 64 67.322 60.084 70l1.45-4.506L57.5 62.66h4.878L63.908 58l1.793 4.66H70.5z"></path></g><!----></svg>