<svg data-v-423bf9ae="" xmlns="http://www.w3.org/2000/svg" viewBox="0 0 59.99816900119015 60" class="icon"><!----><!----><!----><!----><g data-v-423bf9ae="" id="fa4e3437-b4cd-4886-9a6b-8a10b77938a5" transform="matrix(0.4687356948852539,0,0,0.4687356948852539,0,2.7939677238464355e-8)" stroke="none" fill="white"><path d="M118.503 9.497a42.822 42.822 0 0 0-10.438-7.9c-5.044-2.53-7.577-1.586-8.816-.348a4.025 4.025 0 0 0-.695.969L76.984 35.85a30.746 30.746 0 0 1 3.523 1.917l18.541-28.91c1.594 3.755 4.834 8.03 8.45 11.646a42.822 42.822 0 0 0 10.437 7.9c.42.21.816.389 1.202.553L90.24 47.49a30.679 30.679 0 0 1 1.92 3.521l33.668-21.593a4.134 4.134 0 0 0 .923-.666c3.78-3.781-1.626-12.631-8.248-19.254zm-8.178 8.178c-6.62-6.622-8.725-12.144-8.32-13.43l.107-.165.01-.02a.985.985 0 0 1 .491-.104c1.79 0 6.966 2.273 13.062 8.37 6.854 6.854 8.87 12.533 8.269 13.55-.008.006-.016.008-.024.013l-.143.091c-1.259.432-6.8-1.654-13.452-8.305zM47.493 90.233l-18.541 28.91c-1.594-3.756-4.834-8.03-8.45-11.646a42.822 42.822 0 0 0-10.437-7.9c-.42-.21-.816-.389-1.202-.553L37.76 80.51a30.679 30.679 0 0 1-1.92-3.52L2.33 98.482a4.053 4.053 0 0 0-1.08.767c-3.78 3.781 1.626 12.63 8.248 19.254a42.822 42.822 0 0 0 10.438 7.9 12.586 12.586 0 0 0 5.5 1.596 4.485 4.485 0 0 0 3.316-1.248 4.025 4.025 0 0 0 .695-.969l21.57-33.632a30.746 30.746 0 0 1-3.523-1.917zm-35.168 25.442c-6.853-6.855-8.87-12.534-8.269-13.552l.024-.012.147-.094c1.265-.43 6.805 1.665 13.448 8.308 6.62 6.622 8.725 12.143 8.32 13.43l-.107.165-.01.02c-1.037.593-6.71-1.423-13.553-8.265zM39.209 60.194a2.002 2.002 0 0 0 2.405-1.489c.139-.592.305-1.188.492-1.772a2 2 0 0 0-3.808-1.223c-.22.684-.414 1.385-.578 2.079a2 2 0 0 0 1.489 2.405zM38.105 71.662a2 2 0 0 0 3.837-1.13c-.174-.59-.325-1.191-.449-1.784a2 2 0 0 0-3.916.818c.146.699.324 1.404.528 2.096zM56.636 42.104a2.019 2.019 0 0 0 .588-.088c.58-.18 1.179-.337 1.78-.471a2 2 0 1 0-.868-3.904 27.27 27.27 0 0 0-2.087.55 2 2 0 0 0 .587 3.913zM69.044 41.557c.6.134 1.2.294 1.778.473a2 2 0 0 0 1.182-3.822c-.68-.21-1.381-.397-2.085-.554a2 2 0 1 0-.875 3.903zM44.905 83.089q.215.215.433.424a2 2 0 0 0 2.765-2.891 22.725 22.725 0 0 1-.366-.357q-.474-.475-.914-.968a2 2 0 0 0-2.984 2.664q.515.576 1.066 1.128zM45.74 48.923a1.993 1.993 0 0 0 1.46-.633c.176-.187.355-.372.538-.555q.38-.38.772-.738a2 2 0 0 0-2.691-2.959q-.464.422-.913.872-.318.32-.624.646a2 2 0 0 0 1.459 3.367zM90.059 56.915a2 2 0 1 0-3.86 1.047c.159.589.297 1.191.408 1.793a2 2 0 0 0 3.933-.735 27.12 27.12 0 0 0-.481-2.105zM80.444 80.081l-.18.182q-.565.565-1.16 1.084a2 2 0 1 0 2.632 3.011c.463-.404.915-.826 1.35-1.26l.218-.22a2 2 0 1 0-2.86-2.797zM58.456 86.326a23.14 23.14 0 0 1-1.766-.512 2 2 0 1 0-1.268 3.793c.681.228 1.38.431 2.076.602a2 2 0 1 0 .958-3.883zM88.7 68.356a2.003 2.003 0 0 0-2.437 1.436 22.93 22.93 0 0 1-.532 1.76 2 2 0 1 0 3.78 1.31 27.16 27.16 0 0 0 .624-2.068 2 2 0 0 0-1.435-2.438zM83.092 44.908q-.427-.428-.87-.832a2 2 0 0 0-2.698 2.953q.376.343.74.707c.43.43.85.886 1.25 1.354a2 2 0 1 0 3.042-2.598 27.49 27.49 0 0 0-1.464-1.584zM70.286 86.129c-.584.165-1.186.31-1.79.43a2 2 0 0 0 .388 3.961 2.075 2.075 0 0 0 .392-.038c.706-.14 1.412-.31 2.098-.504a2 2 0 0 0-1.088-3.85zM77.435 50.565a19 19 0 1 0 0 26.87 18.875 18.875 0 0 0 0-26.87zm-2.828 24.041A15 15 0 1 1 79 64a14.904 14.904 0 0 1-4.393 10.606z"></path><path d="M70.505 58.66h-2.057l-.807-2.096A4 4 0 0 0 63.908 54l-.1.001a4 4 0 0 0-3.7 2.752l-.627 1.908H57.5a4 4 0 0 0-2.298 7.274l1.622 1.139-.547 1.7a4 4 0 0 0 6.065 4.528l1.68-1.15 1.746 1.17a4 4 0 0 0 6.03-4.561l-.562-1.725 1.501-1.058a4 4 0 0 0-2.232-7.317zm-3.987 6.808L67.995 70 64 67.322 60.084 70l1.45-4.506L57.5 62.66h4.878L63.908 58l1.793 4.66H70.5z"></path></g><!----></svg>