<?xml version="1.0" encoding="UTF-8" standalone="no"?>
<svg
   xmlns:dc="http://purl.org/dc/elements/1.1/"
   xmlns:cc="http://creativecommons.org/ns#"
   xmlns:rdf="http://www.w3.org/1999/02/22-rdf-syntax-ns#"
   xmlns:svg="http://www.w3.org/2000/svg"
   xmlns="http://www.w3.org/2000/svg"
   xmlns:sodipodi="http://sodipodi.sourceforge.net/DTD/sodipodi-0.dtd"
   xmlns:inkscape="http://www.inkscape.org/namespaces/inkscape"
   version="1.0"
   width="2650px"
   height="650px"
   viewBox="0 0 12000 2940"
   preserveAspectRatio="xMidYMid meet"
   id="svg60"
   sodipodi:docname="cover.svg"
   inkscape:version="0.92.4 (5da689c313, 2019-01-14)">
  <metadata
     id="metadata66">
    <rdf:RDF>
      <cc:Work
         rdf:about="">
        <dc:format>image/svg+xml</dc:format>
        <dc:type
           rdf:resource="http://purl.org/dc/dcmitype/StillImage" />
        <dc:title></dc:title>
      </cc:Work>
    </rdf:RDF>
  </metadata>
  <defs
     id="defs64" />
  <sodipodi:namedview
     pagecolor="#ffffff"
     bordercolor="#666666"
     borderopacity="1"
     objecttolerance="10"
     gridtolerance="10"
     guidetolerance="10"
     inkscape:pageopacity="0"
     inkscape:pageshadow="2"
     inkscape:window-width="1920"
     inkscape:window-height="1003"
     id="namedview62"
     showgrid="false"
     inkscape:zoom="0.25584906"
     inkscape:cx="563.27503"
     inkscape:cy="537.43587"
     inkscape:window-x="-9"
     inkscape:window-y="-9"
     inkscape:window-maximized="1"
     inkscape:current-layer="svg60" />
  <g
     id="layer101"
     fill="#515dcf"
     stroke="none">
    <path
       d="M1685 2788 c-115 -50 -244 -158 -341 -285 -72 -96 -104 -165 -104 -229 0 -67 -15 -54 293 -250 94 -60 217 -139 355 -228 57 -37 105 -66 106 -64 13 18 46 81 44 83 -2 1 -66 41 -143 90 -77 49 -178 114 -225 144 -47 31 -88 57 -92 59 -4 2 -37 23 -74 47 l-66 44 40 20 c107 54 273 218 343 339 l27 45 28 -41 c16 -22 50 -73 75 -114 222 -352 281 -437 297 -431 25 10 62 34 62 42 0 4 -29 51 -65 106 -36 54 -65 99 -65 101 0 1 -19 31 -42 66 -24 35 -47 71 -53 81 -5 10 -37 59 -69 110 -33 51 -83 129 -112 174 -29 44 -63 88 -76 97 -31 22 -83 20 -143 -6z m95 -82 c0 -71 -137 -248 -272 -353 -60 -46 -165 -99 -175 -89 -12 11 17 84 57 142 76 113 194 221 302 280 69 37 88 41 88 20z"
       id="path2" />
    <path
       d="M6528 2350 c-127 -20 -234 -94 -280 -195 -23 -49 -23 -57 -28 -495 l-5 -444 -32 -22 c-18 -12 -57 -25 -88 -29 -53 -6 -55 -8 -55 -36 l0 -29 214 0 215 0 3 483 c3 422 6 487 20 524 25 63 55 98 106 124 40 20 61 23 137 22 77 0 101 -5 161 -30 39 -17 88 -42 108 -58 l36 -27 0 -455 c0 -281 -4 -461 -10 -473 -11 -21 -51 -36 -122 -46 -45 -6 -48 -8 -48 -35 l0 -29 220 0 220 0 0 530 0 530 73 0 c87 0 99 7 95 51 -3 31 -7 34 -43 41 -22 4 -95 27 -162 52 -67 25 -145 48 -173 52 l-50 7 0 -63 0 -62 -35 26 c-19 15 -65 41 -102 58 -62 29 -75 32 -192 34 -69 2 -152 -1 -183 -6z"
       id="path4" />
    <path
       d="M9792 2350 c-107 -20 -197 -85 -237 -173 -21 -46 -27 -73 -27 -141 -2 -78 1 -88 28 -127 68 -99 231 -165 632 -256 l122 -27 0 -46 c-2 -141 -39 -278 -90 -332 -61 -64 -195 -85 -323 -52 -62 16 -116 52 -129 84 -5 14 0 21 22 30 41 17 60 51 60 109 0 42 -4 53 -30 74 -62 53 -159 41 -200 -25 -18 -27 -21 -45 -17 -103 7 -130 78 -214 222 -262 72 -24 95 -27 230 -27 129 -1 160 2 220 21 150 48 240 146 279 304 13 53 16 123 16 386 0 176 3 341 6 367 14 99 104 141 164 76 18 -19 38 -30 55 -30 26 0 27 2 21 32 -17 86 -77 118 -228 120 -119 2 -160 -13 -207 -69 l-29 -35 -41 26 c-22 14 -76 38 -118 52 -66 22 -99 27 -213 30 -74 2 -159 -1 -188 -6z m392 -122 c33 -11 76 -28 95 -38 l36 -18 -4 -233 c-1 -129 -4 -235 -5 -237 -4 -4 -186 46 -250 68 -139 50 -207 98 -242 175 -28 59 -30 99 -9 180 22 82 50 110 125 126 54 11 188 -1 254 -23z"
       id="path6" />
    <path
       d="M4610 2301 l0 -38 65 -6 c116 -9 105 68 105 -749 l0 -709 -36 -15 c-20 -8 -58 -18 -85 -21 -48 -6 -49 -7 -49 -39 l0 -34 343 0 c359 0 471 8 600 41 237 60 397 221 397 398 -1 209 -142 367 -385 433 -67 18 -116 22 -297 26 l-218 4 0 312 c0 362 -6 342 101 354 l64 7 3 38 3 37 -305 0 -306 0 0 -39z m855 -836 c101 -36 158 -101 181 -207 28 -130 10 -259 -44 -327 -78 -98 -181 -131 -406 -131 l-146 0 0 346 0 346 183 -4 c140 -4 194 -9 232 -23z"
       id="path8" />
    <path
       d="M7590 2301 l0 -38 65 -6 c116 -9 106 70 103 -761 l-3 -721 -40 -3 c-22 -1 -59 -5 -82 -8 -41 -5 -43 -7 -43 -37 l0 -32 128 -43 c167 -57 252 -81 280 -82 l22 0 0 825 0 825 26 16 c14 10 53 20 87 23 l62 6 3 38 3 37 -305 0 -306 0 0 -39z"
       id="path10" />
    <path
       d="M8290 2336 c0 -3 19 -33 42 -68 24 -35 47 -71 53 -81 9 -17 116 -181 330 -512 50 -77 111 -171 136 -209 24 -39 74 -115 110 -170 l67 -101 -261 -3 c-307 -3 -292 -8 -310 107 l-11 71 -33 0 -33 0 0 -135 0 -135 490 0 490 0 -42 68 c-23 37 -62 95 -85 130 -24 35 -43 64 -43 66 0 1 -33 53 -72 114 -87 133 -294 454 -386 597 -25 39 -58 89 -73 113 -16 24 -29 45 -29 48 0 2 135 4 300 4 l299 0 13 -22 c7 -13 17 -52 23 -88 11 -63 12 -65 41 -65 l29 0 0 135 0 135 -522 3 c-288 1 -523 0 -523 -2z"
       id="path12" />
    <path
       d="M10872 2303 c3 -32 7 -38 28 -41 85 -9 109 -15 129 -33 21 -20 21 -22 21 -483 0 -515 6 -476 -68 -476 -20 0 -54 -3 -74 -6 -35 -6 -38 -10 -38 -38 0 -30 2 -32 78 -53 42 -12 129 -40 192 -62 63 -23 125 -41 138 -41 20 0 22 4 22 61 l0 61 39 -31 c22 -17 66 -44 98 -59 50 -23 70 -27 153 -27 76 0 108 5 157 24 121 46 168 137 104 202 -24 24 -38 29 -76 29 -55 0 -86 -18 -121 -73 -14 -23 -38 -51 -53 -62 -52 -39 -143 -17 -248 61 l-53 39 0 458 c0 438 1 458 19 476 17 17 44 24 131 33 21 3 25 9 28 41 l3 37 -306 0 -306 0 3 -37z"
       id="path14" />
    <path
       d="M2412 2013 c-28 -6 -46 -38 -38 -69 13 -49 126 -22 126 30 0 41 -24 51 -88 39z"
       id="path16" />
    <path
       d="M2647 2013 c-12 -11 -8 -60 6 -71 7 -6 31 -14 54 -18 36 -5 43 -3 53 16 16 30 5 66 -22 74 -31 8 -83 8 -91 -1z"
       id="path18" />
    <path
       d="M2898 1899 c-28 -16 -22 -58 12 -90 33 -32 42 -34 71 -19 30 17 25 63 -12 94 -33 28 -45 31 -71 15z"
       id="path20" />
    <path
       d="M2177 1870 c-32 -25 -41 -53 -27 -80 17 -31 63 -26 94 11 31 36 32 50 8 72 -24 22 -44 21 -75 -3z"
       id="path22" />
    <path
       d="M2483 1855 c-123 -33 -205 -101 -260 -213 -36 -73 -38 -80 -38 -176 0 -93 3 -106 32 -169 39 -83 115 -159 193 -196 46 -22 72 -27 162 -29 106 -4 108 -3 182 32 158 76 253 251 227 416 -39 239 -272 395 -498 335z m224 -110 c240 -109 242 -439 3 -558 -76 -38 -183 -38 -257 -2 -59 30 -121 93 -154 157 -34 65 -32 184 3 254 82 158 250 220 405 149z"
       id="path24" />
    <path
       d="M2438 1650 c-27 -28 -30 -35 -24 -71 6 -36 3 -45 -24 -75 -38 -44 -40 -90 -5 -128 17 -19 34 -26 59 -26 31 0 38 -5 49 -32 19 -45 43 -63 87 -63 44 0 66 16 85 62 12 29 19 33 50 33 27 0 44 8 66 29 38 38 37 71 -3 117 -29 33 -33 43 -30 85 3 42 0 52 -24 74 -33 30 -75 33 -113 6 -27 -20 -28 -20 -57 0 -43 28 -80 24 -116 -11z m182 -96 l41 27 -16 -37 c-20 -48 -20 -47 22 -77 l38 -27 -47 0 c-45 0 -46 -1 -63 -42 l-18 -43 -11 40 c-11 39 -13 40 -59 43 l-48 3 33 23 c34 23 38 37 24 89 l-7 29 36 -27 35 -28 40 27z"
       id="path26" />
    <path
       d="M3042 1668 c-16 -16 -15 -38 3 -82 19 -44 56 -50 80 -12 14 22 14 27 -1 65 -13 34 -21 41 -43 41 -15 0 -32 -5 -39 -12z"
       id="path28" />
    <path
       d="M2053 1653 c-7 -2 -17 -22 -23 -44 -17 -62 11 -93 64 -73 9 3 21 24 27 46 9 34 8 43 -7 59 -17 19 -36 23 -61 12z"
       id="path30" />
    <path
       d="M3064 1403 c-6 -5 -15 -27 -18 -49 -6 -32 -3 -45 9 -58 40 -40 89 2 83 71 -3 34 -6 38 -33 41 -16 1 -35 -1 -41 -5z"
       id="path32" />
    <path
       d="M2034 1366 c-3 -14 -2 -43 3 -63 8 -35 12 -38 42 -38 48 0 60 23 41 77 -13 37 -19 43 -47 46 -27 3 -33 -1 -39 -22z"
       id="path34" />
    <path
       d="M3146 1160 c-23 -47 -30 -38 99 -120 44 -28 114 -73 155 -100 41 -27 81 -52 88 -56 7 -3 62 -39 122 -78 l109 -72 -78 -51 c-125 -83 -259 -226 -308 -327 l-17 -36 -55 87 c-31 48 -100 155 -153 238 -53 82 -114 178 -135 212 -21 35 -41 63 -45 63 -4 0 -23 -9 -42 -21 -41 -24 -44 -16 42 -149 94 -146 137 -212 202 -315 134 -212 191 -295 209 -305 65 -34 205 26 343 150 62 56 178 189 178 205 0 4 10 21 22 37 30 42 49 130 37 171 -10 33 -16 38 -194 153 -49 31 -119 76 -155 99 -138 89 -400 255 -403 255 -1 0 -11 -18 -21 -40z m681 -524 c-11 -69 -129 -223 -237 -310 -64 -52 -174 -116 -199 -116 -18 0 -13 27 15 83 70 137 234 297 367 357 57 26 60 25 54 -14z"
       id="path36" />
    <path
       d="M2921 1135 c-34 -40 -39 -66 -15 -89 24 -25 43 -19 85 23 42 42 48 61 23 85 -26 26 -59 19 -93 -19z"
       id="path38" />
    <path
       d="M2172 1144 c-30 -21 -28 -48 8 -84 36 -36 64 -38 85 -6 19 29 10 52 -31 85 -32 25 -33 25 -62 5z"
       id="path40" />
    <path
       d="M2392 998 c-24 -24 -14 -58 23 -74 19 -7 43 -14 53 -14 27 0 55 34 47 58 -10 34 -98 55 -123 30z"
       id="path42" />
    <path
       d="M2680 997 c-28 -14 -38 -51 -19 -74 10 -11 23 -13 53 -9 49 8 66 21 66 50 0 44 -47 60 -100 33z"
       id="path44" />
  </g>
  <g
     id="layer102"
     fill="#c7cacd"
     stroke="none">
    <path
       d="M6529 2350 c-126 -20 -237 -96 -280 -193 -24 -52 -24 -56 -29 -497 l-5 -444 -32 -22 c-18 -12 -57 -25 -88 -29 -53 -6 -55 -8 -55 -36 l0 -29 215 0 215 0 0 447 c0 484 5 545 49 615 43 67 103 92 216 91 77 0 101 -5 161 -30 39 -17 88 -42 108 -58 l36 -27 0 -455 c0 -281 -4 -461 -10 -473 -11 -21 -51 -36 -122 -46 -45 -6 -48 -8 -48 -35 l0 -29 220 0 220 0 0 530 0 530 73 0 c87 0 99 7 95 51 -3 31 -7 34 -43 41 -22 4 -95 27 -162 52 -67 25 -145 48 -173 52 l-50 7 0 -63 0 -62 -35 26 c-19 15 -65 41 -102 58 -62 29 -75 32 -192 34 -69 2 -151 -1 -182 -6z"
       id="path47" />
    <path
       d="M9792 2350 c-107 -20 -197 -85 -237 -173 -21 -45 -27 -73 -27 -139 -1 -76 1 -87 28 -127 66 -100 228 -166 633 -258 l123 -28 -6 -100 c-11 -168 -55 -270 -136 -314 -89 -50 -291 -35 -364 26 -41 34 -51 60 -26 68 10 3 30 17 44 32 21 21 26 35 26 78 0 47 -4 56 -30 78 -62 53 -159 41 -200 -25 -18 -27 -21 -45 -17 -103 7 -130 78 -214 222 -262 72 -24 95 -27 230 -27 129 -1 160 2 220 21 83 27 141 65 190 123 43 51 50 65 78 138 19 53 21 83 26 443 l6 386 28 36 c24 32 34 37 68 37 33 0 47 -6 69 -30 18 -19 38 -30 55 -30 26 0 27 2 21 32 -17 86 -77 118 -228 120 -119 2 -160 -13 -207 -69 l-29 -35 -41 26 c-22 14 -76 38 -118 52 -66 22 -99 27 -213 30 -74 2 -159 -1 -188 -6z m362 -112 c22 -5 70 -23 107 -40 l67 -30 -9 -36 c-5 -20 -9 -126 -9 -234 0 -109 -2 -198 -3 -198 -2 0 -39 9 -83 20 -252 64 -364 126 -410 225 -28 59 -30 111 -8 186 23 77 51 105 124 120 42 9 169 2 224 -13z"
       id="path49" />
    <path
       d="M4612 2303 l3 -38 64 -7 c111 -12 101 64 101 -750 l0 -709 -36 -15 c-20 -8 -58 -18 -85 -21 -48 -6 -49 -7 -49 -39 l0 -34 343 0 c461 0 599 18 752 98 84 44 183 139 214 205 31 65 38 155 17 237 -43 165 -167 276 -371 332 -67 18 -116 22 -297 26 l-218 4 0 312 c0 364 -5 345 102 355 l63 6 3 38 3 37 -306 0 -306 0 3 -37z m853 -838 c101 -36 158 -101 181 -207 28 -130 10 -259 -44 -327 -78 -98 -181 -131 -406 -131 l-146 0 0 346 0 346 183 -4 c140 -4 194 -9 232 -23z"
       id="path51" />
    <path
       d="M7592 2303 l3 -38 64 -7 c112 -12 102 66 99 -762 l-3 -721 -40 -3 c-22 -1 -59 -5 -82 -8 -41 -5 -43 -7 -43 -37 0 -32 0 -32 128 -75 141 -48 258 -82 285 -82 16 0 17 46 17 825 l0 825 26 16 c14 10 53 20 87 23 l62 6 3 38 3 37 -306 0 -306 0 3 -37z"
       id="path53" />
    <path
       d="M8298 2334 c-3 -3 13 -33 35 -67 23 -34 46 -70 52 -80 10 -18 320 -497 454 -702 37 -55 67 -103 69 -107 2 -4 30 -47 62 -95 l58 -88 -260 -3 c-226 -2 -263 0 -278 13 -20 18 -40 87 -40 134 0 29 -3 31 -35 31 l-35 0 0 -135 0 -135 490 0 490 0 -42 68 c-23 37 -62 95 -85 130 -24 35 -43 64 -43 66 0 1 -33 53 -72 114 -87 133 -294 454 -386 597 -25 39 -58 89 -73 113 -16 24 -29 45 -29 48 0 2 135 4 300 4 l299 0 16 -29 c8 -16 18 -54 21 -85 7 -56 7 -56 41 -56 l34 0 -3 133 -3 132 -516 3 c-283 1 -518 0 -521 -4z"
       id="path55" />
    <path
       d="M10872 2303 c3 -36 5 -38 38 -41 69 -5 97 -13 118 -33 22 -20 22 -20 22 -483 0 -515 6 -476 -68 -476 -20 0 -54 -3 -74 -6 -35 -6 -38 -10 -38 -38 0 -30 2 -32 78 -53 42 -12 129 -40 192 -62 63 -23 125 -41 138 -41 20 0 22 4 22 61 l0 61 39 -31 c22 -17 66 -44 98 -59 50 -23 70 -27 153 -27 76 0 108 5 157 24 121 46 168 137 104 202 -54 53 -148 35 -192 -38 -29 -49 -67 -81 -104 -88 -42 -9 -126 25 -197 78 l-58 42 0 458 c0 438 1 458 19 476 17 17 44 24 131 33 21 3 25 9 28 41 l3 37 -306 0 -306 0 3 -37z"
       id="path57" />
  </g>
  <path
     style="fill:#1a1a1a;fill-opacity:1;stroke-width:3.90855455"
     d="m 1021.3576,509.51309 c 0,-7.11428 4.3581,-9.80334 17.6739,-10.90539 6.6637,-0.55151 11.721,-3.94016 13.7176,-9.19161 1.7394,-4.57492 3.3586,-76.9758 3.5984,-160.89086 l 0.4358,-152.57282 -12.299,-4.28745 c -6.7644,-2.3581 -13.6565,-3.44846 -15.3157,-2.42302 -3.3704,2.08306 -13.8322,-8.96535 -11.0879,-11.70966 2.513,-2.51299 163.2236,-2.74282 177.2076,-0.25342 6.4491,1.14806 17.0022,2.81821 23.4513,3.71146 25.1402,3.48207 42.682,12.1836 63.9038,31.69918 22.2078,20.42233 27.9657,32.29646 27.8614,57.45708 -0.1686,40.68919 -21.6865,69.92522 -63.893,86.81048 -22.1263,8.85191 -34.3487,10.84543 -78.818,12.85549 l -52.6309,2.37897 v 69.27262 c 0,74.87729 0.3863,76.29326 21.4637,78.67818 7.3549,0.83221 12.1734,3.86033 12.9894,8.16296 1.1931,6.29129 -3.8991,6.83997 -63.4806,6.83997 -53.7954,0 -64.7778,-0.95487 -64.7778,-5.63216 z m 185.7512,-185.96575 c 2.4932,-2.0691 5.6903,-2.60469 7.1048,-1.19021 1.4144,1.41449 2.5718,0.5198 2.5718,-1.98818 0,-2.50799 2.5185,-4.55998 5.5966,-4.55998 6.8763,0 20.7048,-18.78961 23.2566,-31.60007 1.0342,-5.19187 3.0797,-15.05503 4.5457,-21.91813 4.6478,-21.75909 -4.8601,-50.038 -22.043,-65.56172 -8.4078,-7.59601 -17.4805,-14.03541 -20.1615,-14.30976 -2.6809,-0.27435 -9.2715,-1.2844 -14.6458,-2.24455 -5.3742,-0.96016 -25.1613,-2.66954 -43.9712,-3.79863 l -34.1999,-2.0529 v 79.14761 79.14761 l 43.7065,-2.65455 c 24.0386,-1.46 45.7463,-4.34744 48.2394,-6.41654 z"
     id="path4579"
     inkscape:connector-curvature="0"
     transform="matrix(4.5283019,0,0,4.5283019,0,-1.6981132)" />
  <path
     style="fill:#1a1a1a;fill-opacity:1;stroke-width:3.90855455"
     d="m 1442.472,517.98026 c -27.331,-6.53123 -48.769,-19.19286 -56.8484,-33.5756 -7.2314,-12.87296 -8.2468,-23.82468 -10.8088,-116.56934 l -2.8276,-102.36154 -10.1784,-3.92733 c -5.5981,-2.16004 -13.5503,-4.46571 -17.6715,-5.12371 -4.1213,-0.658 -8.2253,-3.39493 -9.12,-6.08206 -1.2415,-3.72875 9.557,-4.8857 45.6016,-4.8857 h 47.2284 l 0.3574,38.10841 c 1.718,183.18391 1.4047,177.7878 11.4096,196.4821 10.4276,19.48418 54.9645,25.36926 85.8766,11.34768 32.9644,-14.95251 31.3414,-9.21448 31.3169,-110.72169 -0.02,-82.26798 -3.3305,-118.70502 -10.9104,-120.0811 -1.5113,-0.27435 -6.466,-0.90216 -11.0105,-1.39513 -4.5445,-0.49296 -10.2608,-2.13115 -12.7028,-3.6404 -12.0232,-7.43073 -0.8014,-10.09987 42.4626,-10.09987 h 46.9027 v 117.25664 117.25664 h 17.1326 c 13.5418,0 17.5394,1.55565 19.0736,7.42237 1.4654,5.60345 -0.578,7.92832 -8.3384,9.48699 -5.6536,1.13554 -15.5559,4.24378 -22.005,6.9072 -6.4491,2.66341 -13.0448,5.20981 -14.6571,5.65865 -1.6123,0.44885 -3.8108,1.2558 -4.8857,1.79322 -1.0748,0.53743 -3.7131,1.41686 -5.8628,1.95428 -2.1497,0.53743 -4.3483,1.33157 -4.8857,1.76476 -0.5374,0.43319 -3.6154,1.34755 -6.84,2.03193 -3.2245,0.68436 -7.6217,1.6375 -9.7714,2.11808 -10.0891,2.25548 -13.6799,-0.92144 -13.6799,-12.10331 0,-6.62826 -1.3409,-11.4651 -2.9798,-10.74853 -1.6389,0.71657 -12.9853,6.30395 -25.2142,12.41641 -23.5021,11.74717 -59.6296,15.65073 -86.1636,9.30995 z"
     id="path4581"
     inkscape:connector-curvature="0"
     transform="matrix(4.5283019,0,0,4.5283019,0,-1.6981132)" />
  <path
     style="fill:#1a1a1a;fill-opacity:1;stroke-width:3.90855455"
     d="m 1678.7188,508.30528 c 0.8159,-4.30263 5.6344,-7.33075 12.9894,-8.16296 6.4307,-0.72764 13.8178,-3.08105 16.4158,-5.22979 3.5442,-2.93128 4.7829,-43.71612 4.9609,-163.33793 l 0.2372,-159.43112 -8.8694,-2.37643 c -4.8782,-1.30703 -13.7681,-2.40043 -19.7555,-2.42979 -9.3189,-0.0457 -10.3367,-1.07967 -7.0705,-7.18272 2.0986,-3.92115 11.2906,-9.36894 20.4267,-12.1062 9.1362,-2.73726 21.1122,-6.85677 26.6133,-9.15448 5.5012,-2.29771 11.1747,-4.32504 12.6078,-4.50517 1.4332,-0.18013 3.8037,-1.52546 5.2679,-2.98962 1.4641,-1.46417 4.9505,-1.78397 7.7474,-0.71068 2.797,1.07329 6.2642,0.044 7.7051,-2.28734 8.3786,-13.55689 9.9012,13.79259 9.9565,178.84434 0.033,98.22214 1.4944,180.84658 3.2477,183.60988 1.7533,2.7633 10.0809,6.11327 18.5058,7.44437 14.1935,2.24253 20.9738,6.70932 21.1209,13.91419 0.033,1.61228 -29.9696,2.93142 -66.6722,2.93142 -61.4427,0 -66.6292,-0.54216 -65.4348,-6.83997 z"
     id="path4583"
     inkscape:connector-curvature="0"
     transform="matrix(4.5283019,0,0,4.5283019,0,-1.6981132)" />
  <path
     style="fill:#1a1a1a;fill-opacity:1;stroke-width:3.90855455"
     d=""
     id="path4585"
     inkscape:connector-curvature="0"
     transform="matrix(4.5283019,0,0,4.5283019,0,-1.6981132)" />
  <path
     style="fill:#1a1a1a;fill-opacity:1;stroke-width:3.90855455"
     d="m 1836.0586,515.54525 c -1.6243,-1.60491 14.0183,-32.1046 18.2466,-35.57699 5.2006,-4.27084 73.8371,-112.39604 73.8371,-116.31785 0,-2.30776 1.545,-4.7822 3.4333,-5.49877 4.4307,-1.68131 47.3779,-68.37614 47.3779,-73.5754 0,-2.16935 1.7588,-3.94427 3.9086,-3.94427 2.1497,0 3.9085,-2.63827 3.9085,-5.86283 0,-3.22456 1.8627,-5.86283 4.1392,-5.86283 2.2766,0 3.0522,-1.75885 1.7236,-3.90855 -2.788,-4.51115 -107.0979,-5.35239 -113.7401,-0.91729 -6.3815,4.26107 -13.2879,18.82455 -13.2879,28.02022 0,5.46835 -2.5228,8.07406 -7.8171,8.07406 -7.0726,0 -7.8171,-2.60571 -7.8171,-27.35988 v -27.35989 h 107.5184 107.5183 l -4.9188,8.79425 c -2.7053,4.83684 -5.9452,9.67367 -7.1997,10.74853 -5.5933,4.79229 -30.9418,45.30837 -30.9418,49.45618 0,2.53669 -1.5315,5.19844 -3.4032,5.91501 -4.4576,1.70646 -31.7738,44.6679 -31.7738,49.97202 0,2.25298 -1.7588,4.09631 -3.9085,4.09631 -2.1498,0 -3.9086,2.49171 -3.9086,5.53712 0,3.04542 -1.5315,6.1234 -3.4032,6.83997 -4.4576,1.70647 -31.7738,44.66791 -31.7738,49.97203 0,2.25297 -1.7588,4.09631 -3.9086,4.09631 -2.1497,0 -3.9085,1.83239 -3.9085,4.07198 0,2.2396 -3.1712,7.47584 -7.0471,11.63611 -3.8758,4.16026 -10.9011,14.42156 -15.6117,22.80287 l -8.5646,15.23876 68.2685,0.69297 68.2686,0.69297 4.4812,-17.79644 c 7.1539,-28.4106 15.2788,-23.32496 15.2788,9.56344 v 27.35988 l -26.3827,0.61737 c -59.1072,1.38313 -197.1248,1.23206 -198.5918,-0.21737 z"
     id="path4587"
     inkscape:connector-curvature="0"
     transform="matrix(4.5283019,0,0,4.5283019,0,-1.6981132)" />
  <path
     style="fill:#1a1a1a;fill-opacity:1;stroke-width:3.90855455"
     d="m 2151.0662,513.83738 c -11.7484,-3.94389 -23.6598,-10.45312 -26.4698,-14.46497 -2.81,-4.01184 -7.771,-9.95617 -11.0244,-13.20962 -3.2535,-3.25344 -5.8554,-7.2973 -5.782,-8.98636 0.073,-1.68905 -0.9132,-8.64977 -2.1923,-15.46826 -4.9532,-26.40238 7.4797,-48.27795 34.8091,-61.24662 13.5503,-6.43002 34.6995,-15.3542 37.883,-15.98522 1.0748,-0.21305 4.1528,-1.78337 6.8399,-3.4896 2.6872,-1.70623 4.8857,-2.29439 4.8857,-1.30703 0,0.98737 12.7517,-1.61259 28.3371,-5.77768 15.5853,-4.16509 34.2972,-8.43383 41.582,-9.48608 18.7679,-2.71096 19.0435,-3.13011 17.1018,-26.01581 -2.7365,-32.25394 -7.777,-47.34154 -20.6231,-61.73006 -11.2115,-12.55772 -13.4692,-13.36394 -39.8588,-14.23348 -15.3858,-0.50697 -29.8498,0.25215 -32.1422,1.68693 -2.2925,1.43478 -6.5567,2.97012 -9.476,3.41186 -2.9193,0.44173 -8.933,4.69438 -13.3639,9.45032 -7.8124,8.38569 -7.8362,8.80794 -0.7851,13.96383 3.9991,2.92417 8.6937,5.31666 10.4325,5.31666 5.1235,0 3.3703,24.80313 -2.2794,32.24558 -6.8718,9.0525 -30.4497,9.0525 -38.5646,0 -6.6576,-7.42684 -10.1534,-35.39245 -5.388,-43.10303 1.6237,-2.62722 1.624,-4.77677 5e-4,-4.77677 -8.2474,0 25.8984,-28.19479 41.3186,-34.1175 23.3624,-8.97315 89.6665,-9.23739 109.6968,-0.43717 19.8218,8.70856 37.1186,24.51018 45.2618,41.34922 9.3049,19.24124 8.7345,13.64497 11.4532,112.3591 1.9528,70.90039 3.4585,87.13735 8.6087,92.82817 7.781,8.59792 23.6935,8.90485 32.8334,0.63331 10.929,-9.89058 15.6144,-5.10677 8.7765,8.96091 -5.3926,11.0944 -8.4115,12.76211 -27.3954,15.13399 -28.9606,3.61839 -47.515,-0.0113 -59.691,-11.6765 l -10.201,-9.77319 -15.5716,8.84483 c -8.5644,4.86466 -16.8907,9.19657 -18.503,9.62647 -1.6123,0.4299 -3.3712,0.90034 -3.9086,1.04542 -24.7071,6.66985 -74.4612,5.86037 -96.6004,-1.57165 z m 99.4018,-22.03549 c 3.2961,-2.73553 5.9929,-3.83373 5.9929,-2.44046 0,1.39328 5.2765,-0.19539 11.7256,-3.53034 11.27,-5.82794 11.7246,-7.08496 11.6979,-32.34595 -0.015,-14.4553 -1.1525,-38.19132 -2.5271,-52.7467 -2.0471,-21.67621 -3.6332,-26.16172 -8.7664,-24.7918 -85.952,22.9381 -109.1808,41.51067 -105.0953,84.02893 1.9057,19.83325 9.156,31.46779 22.7896,36.57049 10.3095,3.85859 58.0709,0.32824 64.1828,-4.74417 z"
     id="path4589"
     inkscape:connector-curvature="0"
     transform="matrix(4.5283019,0,0,4.5283019,0,-1.6981132)" />
  <path
     style="fill:#1a1a1a;fill-opacity:1;stroke-width:3.90855455"
     d="m 2496.5636,378.34584 c 0,-50.51807 0.5571,-71.18455 1.2379,-45.92552 0.6808,25.25904 0.6808,66.592 0,91.85103 -0.6808,25.25904 -1.2379,4.59256 -1.2379,-45.92551 z"
     id="path4591"
     inkscape:connector-curvature="0"
     transform="matrix(4.5283019,0,0,4.5283019,0,-1.6981132)" />
  <path
     style="fill:#201d25;fill-opacity:1;stroke-width:3.90855455"
     d="m 2401.0774,509.35688 c 0,-3.1836 4.8368,-6.82302 10.7485,-8.08761 5.9117,-1.26458 14.706,-3.89866 19.5428,-5.8535 l 8.7942,-3.55426 V 388.07835 c 0,-79.60638 -1.1381,-104.1389 -4.8857,-105.31024 -2.6871,-0.83989 -11.4813,-2.62324 -19.5427,-3.96299 -26.1379,-4.34394 -17.4754,-12.19456 29.9296,-27.12472 24.5227,-7.72339 45.6289,-14.04253 46.9027,-14.04253 1.2737,0 2.3159,6.10297 2.3159,13.56215 v 13.56215 l 14.2161,-9.64732 c 29.2962,-19.88089 70.2189,-21.70597 96.1582,-4.28847 21.1545,14.20472 18.2335,40.67602 -4.8777,44.20303 -4.2247,0.64473 -14.9954,-6.78308 -26.6569,-18.38345 -10.7624,-10.70592 -21.5281,-19.46531 -23.9238,-19.46531 -5.7621,0 -32.572,11.26739 -35.2362,14.80868 -1.1501,1.5289 -5.6089,4.72935 -9.9083,7.11212 -7.4745,4.1424 -7.858,8.888 -8.7499,108.25915 -0.6973,77.694 0.2558,104.66138 3.7758,106.83689 2.5897,1.60052 10.9054,3.9173 18.4792,5.14839 8.8019,1.43072 14.2418,4.68488 15.0764,9.01886 1.1981,6.2212 -4.1987,6.78051 -65.4262,6.78051 -56.3301,0 -66.732,-0.90227 -66.732,-5.78837 z"
     id="path4593"
     inkscape:connector-curvature="0"
     transform="matrix(4.5283019,0,0,4.5283019,0,-1.6981132)" />
  <path
     style="fill:#201d25;fill-opacity:1;stroke-width:3.90855455"
     d="m 1045.7861,512.2637 c -22.5866,-1.5801 -27.2266,-7.6982 -8.6554,-11.41244 6.5254,-1.30509 13.5039,-5.4362 15.5076,-9.18023 2.051,-3.83226 3.8486,-74.06964 4.1131,-160.71154 l 0.4699,-153.90421 -9.1376,-4.82808 c -5.0257,-2.65544 -12.1118,-4.854 -15.7469,-4.88569 -3.6351,-0.0317 -7.5353,-1.55599 -8.6672,-3.38733 -3.3755,-5.46177 77.7776,-8.00926 143.7722,-4.51318 71.0157,3.76208 89.1934,9.94272 119.179,40.52227 19.564,19.95141 24.9599,38.6985 19.5199,67.81744 -5.902,31.5923 -27.3704,54.14657 -65.904,69.23765 -14.3423,5.61692 -78.7127,13.15617 -118.2338,13.84788 -6.2547,0.10947 -6.84,6.09843 -6.84,69.99512 0,74.75422 0.2185,75.61261 20.5418,80.71344 17.7858,4.46396 12.2074,8.39166 -15.6561,11.02319 -26.1721,2.47179 -34.7,2.43341 -74.2625,-0.3343 z M 1192.61,327.30043 c 41.045,-6.92059 57.101,-27.74622 57.2826,-74.29922 0.097,-24.9639 -1.3558,-31.73457 -9.3035,-43.34656 -16.3659,-23.91143 -29.6102,-30.19998 -68.8636,-32.69719 -19.286,-1.22694 -39.9024,-2.98202 -45.814,-3.90019 l -10.7486,-1.6694 v 81.75453 81.75452 l 28.3371,-2.04697 c 15.5853,-1.12584 37.6848,-3.62312 49.11,-5.54952 z"
     id="path4595"
     inkscape:connector-curvature="0"
     transform="matrix(4.5283019,0,0,4.5283019,0,-1.6981132)" />
  <path
     style="fill:#201d25;fill-opacity:1;stroke-width:3.90855455"
     d="m 1428.3688,511.79261 c -11.5365,-4.11414 -26.1842,-12.68898 -32.5504,-19.0552 -14.1141,-14.1141 -18.2101,-39.39747 -19.1653,-118.30013 -0.3513,-29.02101 -1.728,-65.95685 -3.0593,-82.07964 l -2.4205,-29.31416 -17.5885,-5.72351 -17.5885,-5.7235 17.5885,-2.78103 c 9.6736,-1.52957 30.3401,-2.9114 45.9255,-3.07074 l 28.337,-0.28972 0.093,100.64528 c 0.051,55.35491 1.6873,107.51795 3.6357,115.91788 1.9484,8.39993 8.0438,19.7739 13.5454,25.27551 8.3807,8.38066 14.3981,10.25125 37.1036,11.53423 22.7399,1.28492 30.5698,-0.0569 48.6601,-8.33889 18.5291,-8.48291 21.9052,-11.71353 24.0197,-22.98468 1.3531,-7.21295 1.9,-54.58206 1.2153,-105.2647 -1.3316,-98.55168 -2.6345,-105.05896 -21.0358,-105.05896 -4.9841,0 -9.9948,-1.50923 -11.1349,-3.35384 -2.1747,-3.51875 37.3549,-8.29663 69.034,-8.34404 l 18.5657,-0.0278 v 117.25664 117.25664 l 8.7942,0.0534 c 13.9506,0.0847 26.8187,4.50174 25.4116,8.72281 -1.3298,3.98951 -52.0979,23.70022 -72.6966,28.22445 -10.5504,2.31725 -11.8349,1.46748 -14.2239,-9.40956 -1.4444,-6.57625 -3.4189,-11.95683 -4.3877,-11.95683 -0.9688,0 -12.7013,4.65037 -26.0722,10.33416 -32.601,13.85825 -71.2247,16.11991 -100.006,5.85597 z"
     id="path4597"
     inkscape:connector-curvature="0"
     transform="matrix(4.5283019,0,0,4.5283019,0,-1.6981132)" />
  <path
     style="fill:#201d25;fill-opacity:1;stroke-width:3.90855455"
     d="m 1769.2573,393.98006 c 0,-18.2725 0.6732,-25.74761 1.4961,-16.61136 0.8229,9.13625 0.8229,24.08647 0,33.22271 -0.8229,9.13625 -1.4961,1.66114 -1.4961,-16.61135 z"
     id="path4599"
     inkscape:connector-curvature="0"
     transform="matrix(4.5283019,0,0,4.5283019,0,-1.6981132)" />
  <path
     style="fill:#201d25;fill-opacity:1;stroke-width:3.90855455"
     d="m 1838.2455,511.48375 c 0,-2.01383 7.5422,-14.76549 16.7604,-28.33702 9.2182,-13.57154 28.8481,-44.02287 43.6219,-67.66962 14.7739,-23.64676 35.1291,-55.30605 45.2338,-70.35399 28.9879,-43.16905 50.1299,-79.41869 47.7233,-81.82537 -1.2147,-1.2147 -27.319,-2.20855 -58.0096,-2.20855 -53.2323,0 -56.081,0.39987 -61.8854,8.68679 -3.3465,4.77773 -6.0845,11.59777 -6.0845,15.15564 0,3.55786 -2.4234,8.48013 -5.3854,10.93836 -6.7447,5.59762 -10.1181,-4.94032 -10.1954,-31.84937 l -0.053,-18.56564 h 105.531 c 58.042,0 105.5309,1.08349 105.5309,2.40776 0,1.32427 -5.947,10.55823 -13.2155,20.51991 -7.2686,9.96169 -16.5544,24.26813 -20.6353,31.7921 -4.0808,7.52396 -14.2768,24.23304 -22.6577,37.13127 -8.3809,12.89823 -25.467,39.28097 -37.9692,58.62831 -12.5022,19.34735 -29.5357,44.85067 -37.8522,56.67405 -16.4161,23.33823 -25.394,39.07471 -23.3518,40.93121 0.7116,0.64689 31.8858,1.81538 69.276,2.59666 l 67.9822,1.4205 5.9811,-19.54277 c 5.8966,-19.26639 6.0204,-19.37694 8.7494,-7.81711 1.5225,6.44912 2.9763,19.20078 3.2306,28.33702 l 0.4624,16.61136 h -111.3938 c -66.6461,0 -111.3938,-1.47085 -111.3938,-3.6615 z"
     id="path4601"
     inkscape:connector-curvature="0"
     transform="matrix(4.5283019,0,0,4.5283019,0,-1.6981132)" />
  <path
     style="fill:#201d25;fill-opacity:1;stroke-width:3.90855455"
     d=""
     id="path4603"
     inkscape:connector-curvature="0"
     transform="matrix(4.5283019,0,0,4.5283019,0,-1.6981132)" />
  <path
     style="fill:#3f3f3c;fill-opacity:1;stroke-width:3.90855455"
     d="m 2427.4601,512.25687 c -12.3608,-0.77565 -22.4742,-2.87255 -22.4742,-4.65978 0,-1.78722 7.9431,-5.24957 17.6512,-7.69412 l 17.6512,-4.44461 -1.0398,-106.43606 -1.0398,-106.43605 -16.682,-3.69682 c -9.175,-2.03326 -16.117,-5.55096 -15.4266,-7.81711 1.1811,-3.87681 69.3177,-28.80247 80.0861,-29.29702 2.7408,-0.12588 6.0455,5.08195 7.3437,11.57294 l 2.3604,11.80182 18.0618,-10.772 c 15.4798,-9.2321 22.3492,-10.77954 48.0526,-10.82468 24.4001,-0.0429 32.0503,1.47657 41.0398,8.15098 17.5318,13.01684 16.0366,40.65328 -2.1994,40.65328 -3.5357,0 -15.7099,-8.11915 -27.0539,-18.04255 -17.8016,-15.57245 -22.2794,-17.71174 -32.7072,-15.62617 -17.4676,3.4935 -38.3821,17.52009 -42.5776,28.55518 -1.993,5.24204 -3.6237,53.17236 -3.6237,106.51182 0,105.15065 -0.5222,102.65144 22.4742,107.56861 20.1006,4.298 14.913,8.57303 -13.68,11.27346 -26.0448,2.45977 -32.0071,2.43309 -76.2168,-0.3411 z"
     id="path4605"
     inkscape:connector-curvature="0"
     transform="matrix(4.5283019,0,0,4.5283019,0,-1.6981132)" />
  <path
     style="fill:#3f3f3c;fill-opacity:1;stroke-width:3.90855455"
     d="m 2331.032,403.42573 c 0.1875,-4.55324 1.1137,-5.4794 2.3614,-2.36142 1.1291,2.82149 0.9902,6.19262 -0.3086,7.4914 -1.2988,1.29878 -2.2225,-1.00971 -2.0528,-5.12998 z"
     id="path4607"
     inkscape:connector-curvature="0"
     transform="matrix(4.5283019,0,0,4.5283019,0,-1.6981132)" />
  <path
     style="fill:#3f3f3c;fill-opacity:1;stroke-width:3.90855455"
     d="m 2411.7867,510.60854 c -6.1464,-3.79867 -3.6012,-5.79924 12.742,-10.01565 l 13.68,-3.52929 1.0992,-99.42157 c 0.6047,-54.68186 0.1314,-103.37897 -1.0516,-108.21581 -1.2334,-5.04314 -5.1348,-8.79425 -9.1465,-8.79425 -3.8475,0 -10.3527,-2.45478 -14.4558,-5.45506 -7.0314,-5.14145 -6.5687,-5.84857 8.0472,-12.29955 8.5291,-3.76446 17.6628,-7.30368 20.2971,-7.86494 2.6344,-0.56125 12.9733,-4.14581 22.9755,-7.96568 17.5989,-6.72106 18.3589,-6.70857 23.5474,0.3871 2.9488,4.03279 5.3615,9.47564 5.3615,12.09524 0,3.14309 6.4411,1.6556 18.9394,-4.37379 13.6547,-6.58724 27.0148,-9.39902 47.8798,-10.07684 28.3641,-0.92143 29.245,-0.6585 44.2374,13.20374 13.6258,12.5987 14.6933,14.87126 9.7714,20.80184 -3.0391,3.66187 -5.167,7.70676 -4.7287,8.98864 0.4384,1.28188 -3.9588,2.10926 -9.7714,1.83863 -6.2389,-0.29049 -16.9578,-6.36105 -26.1655,-14.81857 -21.6666,-19.9015 -29.285,-20.91046 -53.7227,-7.11486 -15.3149,8.6456 -21.2082,14.49741 -23.0458,22.88361 -3.1842,14.53155 -4.0207,184.41612 -0.9642,195.8173 1.994,7.43797 11.7707,13.92402 21.9988,14.59439 1.6122,0.10568 2.9314,1.51127 2.9314,3.12355 v 6.15954 c 0,3.97284 -104.0326,4.02208 -110.4559,0.0523 z"
     id="path4609"
     inkscape:connector-curvature="0"
     transform="matrix(4.5283019,0,0,4.5283019,0,-1.6981132)" />
  <path
     style="fill:#3f3f3c;fill-opacity:1;stroke-width:3.90855455"
     d="m 2496.2701,352.94023 c -0.012,-19.34734 0.649,-27.75495 1.4687,-18.68356 0.8197,9.07138 0.8295,24.90103 0.022,35.17699 -0.8078,10.27596 -1.4785,2.85392 -1.4904,-16.49343 z"
     id="path4611"
     inkscape:connector-curvature="0"
     transform="matrix(4.5283019,0,0,4.5283019,0,-1.6981132)" />
  <path
     style="fill:#3f3f3c;fill-opacity:1;stroke-width:3.90855455"
     d="m 2412.9162,511.38936 c -7.1225,-4.50446 -3.4367,-8.45482 12.7792,-13.6964 l 12.5133,-4.04476 1.1379,-93.80531 c 1.2672,-104.45895 -0.012,-119.21092 -10.3394,-119.21092 -3.7911,0 -10.2456,-2.45149 -14.3432,-5.44777 -6.9887,-5.11026 -6.3691,-5.93621 10.0015,-13.3317 9.5984,-4.33616 26.9753,-10.91646 38.6152,-14.62288 20.1691,-6.4223 21.4021,-6.41262 26.2418,0.20603 2.7931,3.81974 5.6092,8.53773 6.2581,10.48442 0.6489,1.94669 9.0865,0.0419 18.7503,-4.23284 11.8036,-5.22127 27.6075,-8.03793 48.1507,-8.58166 30.3071,-0.80216 30.7054,-0.68417 44.6026,13.2131 12.4945,12.4945 13.4166,14.75263 8.4617,20.7229 -3.0585,3.68523 -5.2022,7.74922 -4.7639,9.0311 1.7635,5.15706 -22.4521,0.77664 -28.3587,-5.12988 -3.4857,-3.48571 -12.3677,-10.93704 -19.7378,-16.55851 -13.2859,-10.13362 -13.5449,-10.16564 -30.3412,-3.75106 -9.3176,3.5584 -21.1634,10.96283 -26.3242,16.4543 -9.2218,9.81279 -9.4066,11.46416 -10.7484,96.03216 -1.6804,105.90246 -0.096,119.52429 14.3053,122.96254 14.7431,3.51993 16.3281,4.81786 13.831,11.32537 -1.7829,4.64617 -11.974,5.72627 -53.5719,5.67781 -28.2536,-0.0329 -53.9576,-1.69614 -57.1199,-3.69604 z"
     id="path4613"
     inkscape:connector-curvature="0"
     transform="matrix(4.5283019,0,0,4.5283019,0,-1.6981132)" />
  <path
     style="fill:#3f3f3c;fill-opacity:1;stroke-width:3.90855455"
     d="m 2170.4727,516.60541 c -23.7462,-4.60724 -35.578,-10.72791 -48.5991,-25.14077 -12.3663,-13.68802 -13.9378,-17.81615 -13.9378,-36.61336 0,-17.38135 1.9197,-23.46734 10.6899,-33.89017 14.324,-17.02307 56.6269,-35.6957 104.6125,-46.17623 59.9999,-13.10459 58.1612,-11.76153 54.9507,-40.13822 -3.5552,-31.4238 -12.0469,-51.75132 -26.8072,-64.1713 -11.201,-9.42498 -14.283,-10.03401 -44.4308,-8.77969 -29.4414,1.22493 -33.3828,2.34867 -43.2308,12.32549 l -10.8359,10.97769 8.7942,7.23732 c 8.9858,7.39496 11.6955,24.67194 5.4212,34.56581 -4.6379,7.31356 -27.2046,7.00707 -34.6827,-0.47105 -4.0804,-4.08043 -6.4175,-13.44012 -6.604,-26.44873 -0.2716,-18.94699 0.701,-21.01195 16.5043,-35.04112 19.251,-17.0897 41.3879,-23.34632 82.0905,-23.20141 49.4903,0.1762 75.3061,12.89485 93.9685,46.29544 8.4998,15.21231 9.3867,22.69108 12.4836,105.26772 1.8335,48.8906 4.5058,91.9464 5.9383,95.67956 4.3977,11.46029 21.1114,13.28615 42.2598,4.61659 6.6303,-2.718 6.844,-2.13541 2.3463,6.39653 -7.2916,13.83196 -10.8296,15.12423 -41.5867,15.18989 -24.7121,0.0528 -29.5048,-1.17513 -40.4131,-10.35388 l -12.376,-10.41372 -21.7009,10.6431 c -16.828,8.25323 -28.817,10.96839 -53.3922,12.09173 -17.4302,0.79675 -36.0884,0.5955 -41.4626,-0.44722 z m 77.4144,-22.70799 c 33.2242,-8.84387 32.965,-8.30594 31.4202,-65.2058 -0.7422,-27.33588 -2.6206,-50.97119 -4.1743,-52.5229 -3.7413,-3.73651 -46.6866,8.38008 -72.2343,20.38023 -30.5912,14.36909 -40.2431,27.95852 -40.2431,56.65997 0,20.70934 1.3361,24.78827 11.425,34.8771 9.7859,9.7859 14.412,11.41835 32.2455,11.37862 11.4514,-0.0254 30.1538,-2.53076 41.561,-5.56722 z"
     id="path4615"
     inkscape:connector-curvature="0"
     transform="matrix(4.5283019,0,0,4.5283019,0,-1.6981132)" />
  <path
     style="fill:#3f3f3c;fill-opacity:1;stroke-width:3.90855455"
     d="m 1838.2455,512.93402 c 0,-4.24625 9.2971,-19.65451 42.6365,-70.66257 18.4692,-28.25722 38.3503,-59.03708 44.1802,-68.39971 5.83,-9.36262 22.97,-36.3703 38.0889,-60.01705 15.1189,-23.64676 27.4978,-45.19266 27.5085,-47.8798 0.015,-3.68303 -13.8206,-4.88569 -56.205,-4.88569 -54.5197,0 -56.4049,0.27534 -62.1745,9.08089 -3.2725,4.99448 -6.5528,13.21125 -7.2895,18.25948 -0.7367,5.04823 -3.3141,9.828 -5.7275,10.62172 -5.637,1.85387 -9.171,-11.54637 -9.2385,-35.03067 l -0.053,-18.56564 h 105.531 c 58.042,0 105.5309,1.15326 105.5309,2.56279 0,1.40953 -7.7042,14.16119 -17.1205,28.33702 -9.4164,14.17583 -25.5012,38.96561 -35.7441,55.08839 -29.4273,46.31983 -60.0945,93.38937 -80.6171,123.7349 -30.0265,44.39834 -34.2247,40.76932 45.7408,39.53929 l 69.5081,-1.06917 5.936,-17.5885 c 5.5251,-16.37113 6.1291,-16.91218 8.7268,-7.81711 1.5349,5.37427 2.9662,18.12593 3.1804,28.33702 l 0.3896,18.56564 h -111.3938 c -61.2666,0 -111.3938,-0.99506 -111.3938,-2.21123 z"
     id="path4617"
     inkscape:connector-curvature="0"
     transform="matrix(4.5283019,0,0,4.5283019,0,-1.6981132)" />
  <path
     style="fill:#3f3f3c;fill-opacity:1;stroke-width:3.90855455"
     d="m 1702.4233,512.486 c -22.5839,-1.82457 -26.9,-7.044 -9.0644,-10.96138 6.3006,-1.38383 13.3559,-4.8058 15.6785,-7.60436 2.9107,-3.50708 3.9055,-54.74606 3.2015,-164.8852 l -1.0214,-159.79689 -11.7257,-1.14519 c -17.9119,-1.74937 -23.4226,-4.35551 -18.8591,-8.91899 5.8062,-5.80618 64.3153,-27.03641 74.556,-27.05291 8.4831,-0.0137 8.8133,1.33438 9.3302,38.09423 0.2948,20.95962 1.6139,102.30641 2.9314,180.77065 l 2.3955,142.66224 18.5657,5.57479 c 10.2111,3.06613 18.5656,7.02354 18.5656,8.79424 0,1.77071 -8.5362,3.21946 -18.9694,3.21946 -10.4332,0 -29.3408,0.65411 -42.017,1.45357 -12.6761,0.79947 -32.2815,0.70755 -43.5674,-0.20426 z"
     id="path4619"
     inkscape:connector-curvature="0"
     transform="matrix(4.5283019,0,0,4.5283019,0,-1.6981132)" />
  <path
     style="fill:#3f3f3c;fill-opacity:1;stroke-width:3.90855455"
     d="m 1618.3893,477.20986 c 4.8369,-0.93161 12.7517,-0.93161 17.5885,0 4.8369,0.93162 0.8795,1.69385 -8.7942,1.69385 -9.6737,0 -13.6311,-0.76223 -8.7943,-1.69385 z"
     id="path4621"
     inkscape:connector-curvature="0"
     transform="matrix(4.5283019,0,0,4.5283019,0,-1.6981132)" />
  <path
     style="fill:#3f3f3c;fill-opacity:1;stroke-width:3.90855455"
     d="m 1428.3688,511.78977 c -11.5365,-4.11258 -26.1358,-12.63772 -32.4428,-18.94475 -13.981,-13.98102 -18.4871,-39.41266 -19.2488,-108.63635 -0.2838,-25.79646 -1.6383,-63.47236 -3.01,-83.72422 l -2.4939,-36.82156 -17.5885,-5.92348 c -16.3685,-5.51259 -16.9107,-6.11708 -7.8171,-8.71435 5.3742,-1.53498 25.8958,-2.96619 45.6034,-3.18047 l 35.832,-0.38961 1.2993,108.46239 c 1.4464,120.7496 2.5909,126.69519 26.7093,138.74762 26.8007,13.39287 77.8573,4.73014 94.1424,-15.97309 7.848,-9.97711 8.0965,-13.92235 6.8327,-108.47476 -1.4025,-104.93232 -2.5626,-111.03649 -21.1022,-111.03649 -4.9841,0 -10.0048,-1.52534 -11.157,-3.38963 -2.6851,-4.34451 26.4312,-8.33604 60.8074,-8.33604 h 26.8144 v 117.25664 117.25664 l 12.7028,0.0598 c 15.395,0.0725 26.0401,5.8425 20.4872,11.10473 -4.2564,4.03363 -72.423,27.92097 -79.6772,27.92097 -2.4857,0 -5.5748,-5.27655 -6.8646,-11.72566 -1.2898,-6.44912 -2.7859,-11.72566 -3.3245,-11.72566 -0.5387,0 -11.3116,4.64772 -23.9399,10.32827 -31.026,13.95631 -73.1067,16.36019 -102.5644,5.85902 z"
     id="path4623"
     inkscape:connector-curvature="0"
     transform="matrix(4.5283019,0,0,4.5283019,0,-1.6981132)" />
  <path
     style="fill:#3f3f3c;fill-opacity:1;stroke-width:3.90855455"
     d="m 1035.3687,511.65919 c -12.1479,-1.88673 -14.1625,-3.27298 -9.7714,-6.72353 3.0425,-2.39071 10.2618,-5.47541 16.043,-6.85489 14.7948,-3.53024 15.4296,-11.64008 14.089,-179.99282 l -1.149,-144.2918 -11.7256,-3.5658 c -22.9583,-6.98165 -23.1911,-8.30168 -1.9543,-11.08331 60.2777,-7.89529 175.6329,-1.14168 206.373,12.08235 25.3571,10.90834 55.0574,41.25266 59.453,60.74217 4.1929,18.59054 -1.2401,49.2112 -11.7481,66.2135 -9.4657,15.31592 -31.0437,30.76488 -54.7416,39.19281 -15.2615,5.4276 -82.1677,13.35419 -114.3252,13.54448 l -10.7486,0.0636 v 66.70238 c 0,36.68631 1.7443,69.96149 3.8761,73.94484 2.1318,3.98335 9.1672,8.4046 15.6342,9.82499 29.8985,6.56681 1.4733,13.8941 -50.7787,13.08942 -18.2725,-0.2814 -40.1091,-1.58118 -48.5258,-2.8884 z m 153.4172,-184.16022 c 33.226,-4.64206 49.2047,-16.87195 57.1942,-43.7757 10.927,-36.7952 5.3823,-63.49456 -18.2589,-87.92176 -14.1201,-14.58957 -21.7835,-16.68368 -73.8578,-20.18232 l -38.7005,-2.60011 v 80.79569 80.79569 l 24.4285,-1.82568 c 13.4357,-1.00413 35.5732,-3.38274 49.1945,-5.28581 z"
     id="path4625"
     inkscape:connector-curvature="0"
     transform="matrix(4.5283019,0,0,4.5283019,0,-1.6981132)" />
</svg>
